#!OML:ASF H:\Swim 2\Project 1\Capture day 1\Session 1\male.ASF
:FULLY-SPECIFIED
:DEGREES
1889
root 0.781169 14.3038 8.58725 102.337 -12.7065 -5.79705
lowerback -21.9319 -2.37153 1.93297
upperback -9.11721 -3.64615 -4.37607
thorax 1.83737 -2.10605 -6.65459
lowerneck 0.726859 13.1102 9.89794
upperneck 10.6486 17.6631 -7.1971
head 4.60934 8.6922 -2.86395
rclavicle 3.49861e-014 -1.51076e-014
rhumerus 67.016 -27.9192 -14.5449
rradius 35.3749
rwrist -27.4992
rhand 13.9879 -1.54533
rfingers 7.12502
rthumb 38.8982 -27.0945
lclavicle 3.49861e-014 -1.51076e-014
lhumerus 56.8992 24.8515 32.2044
lradius 20.5075
lwrist 5.63068
lhand -38.3137 -7.33483
lfingers 7.12502
lthumb -11.3418 22.3385
rfemur -51.8439 5.66737 20.1063
rtibia 34.094
rfoot 25.6637 1.84675
rtoes 9.75587
lfemur -50.1168 3.02492 -23.8833
ltibia 41.7147
lfoot 2.87322 8.02306
ltoes 9.35557
1890
root 0.789882 14.3044 8.61106 102.492 -12.868 -5.85171
lowerback -21.9354 -2.22741 1.85357
upperback -9.0782 -3.43043 -4.3
thorax 1.92079 -1.98582 -6.47979
lowerneck 0.771577 13.1716 10.1248
upperneck 10.4723 17.7553 -7.37877
head 4.59274 8.74366 -2.9467
rclavicle -1.27222e-014 -4.77083e-015
rhumerus 68.5451 -28.076 -14.7622
rradius 34.893
rwrist -26.2741
rhand 13.3145 -1.41851
rfingers 7.12502
rthumb 38.2628 -27.1457
lclavicle -1.27222e-014 -4.77083e-015
lhumerus 55.0298 23.3145 30.4203
lradius 21.2778
lwrist 7.87287
lhand -38.056 -7.77112
lfingers 7.12502
lthumb -11.0933 21.9157
rfemur -52.2218 5.97259 19.713
rtibia 32.4376
rfoot 25.1887 0.766078
rtoes 10.2754
lfemur -49.3727 3.69917 -24.6001
ltibia 42.0808
lfoot 3.87316 7.60491
ltoes 10.1236
1891
root 0.797725 14.3068 8.63843 102.653 -12.9922 -5.90853
lowerback -21.9437 -2.06551 1.78291
upperback -9.03368 -3.19216 -4.20762
thorax 2.01452 -1.85339 -6.28727
lowerneck 0.768598 13.2103 10.3859
upperneck 10.3678 17.816 -7.56162
head 4.60672 8.77882 -3.03122
rclavicle 1.27222e-014 -1.51076e-014
rhumerus 70.0754 -28.2565 -15.0354
rradius 34.392
rwrist -25.0881
rhand 12.6044 -1.33679
rfingers 7.12502
rthumb 37.5922 -27.2458
lclavicle 1.27222e-014 -1.51076e-014
lhumerus 53.2623 21.6816 28.7868
lradius 22.0196
lwrist 9.68912
lhand -37.7518 -8.34791
lfingers 7.12502
lthumb -10.7999 21.3544
rfemur -52.5264 6.27963 19.342
rtibia 30.589
rfoot 24.7735 -0.307969
rtoes 10.8559
lfemur -48.5984 4.41908 -25.2804
ltibia 42.3972
lfoot 4.76527 7.51039
ltoes 10.8872
1892
root 0.804817 14.3104 8.66747 102.823 -13.0788 -5.9752
lowerback -21.9615 -1.87944 1.70993
upperback -8.98203 -2.92006 -4.10065
thorax 2.12412 -1.70251 -6.07021
lowerneck 0.74428 13.216 10.706
upperneck 10.2998 17.8341 -7.77126
head 4.63942 8.7934 -3.13231
rclavicle -1.59028e-014 1.19271e-014
rhumerus 71.6004 -28.4591 -15.3748
rradius 33.8726
rwrist -23.9494
rhand 11.9013 -1.28776
rfingers 7.12502
rthumb 36.9274 -27.371
lclavicle -1.59028e-014 1.19271e-014
lhumerus 51.6311 19.9662 27.3613
lradius 22.7121
lwrist 11.0711
lhand -37.4222 -9.06028
lfingers 7.12502
lthumb -10.4819 20.6584
rfemur -52.7524 6.56835 19.0199
rtibia 28.5716
rfoot 24.3381 -1.33715
rtoes 11.5003
lfemur -47.8212 5.18786 -25.9195
ltibia 42.6971
lfoot 5.51351 7.6936
ltoes 11.6117
1893
root 0.811364 14.3147 8.69663 103 -13.1334 -6.05648
lowerback -21.9927 -1.66636 1.6208
upperback -8.92238 -2.60729 -3.98039
thorax 2.2532 -1.52934 -5.82044
lowerneck 0.720113 13.1843 11.0983
upperneck 10.2485 17.8066 -8.02917
head 4.68389 8.78636 -3.26071
rclavicle -1.11319e-014 -3.10104e-014
rhumerus 73.1138 -28.6737 -15.7899
rradius 33.3448
rwrist -22.8522
rhand 11.2243 -1.25652
rfingers 7.12502
rthumb 36.2866 -27.5021
lclavicle -1.11319e-014 -3.10104e-014
lhumerus 50.1463 18.169 26.156
lradius 23.3393
lwrist 12.0851
lhand -37.1 -9.88512
lfingers 7.12502
lthumb -10.1711 19.849
rfemur -52.8905 6.82241 18.7648
rtibia 26.4123
rfoot 23.815 -2.30026
rtoes 12.206
lfemur -47.0614 6.00164 -26.5176
ltibia 43.011
lfoot 6.10164 8.10241
ltoes 12.3019
